<?xml version="1.0" encoding="UTF-8"?>
<svg height="128px" viewBox="0 0 128 128" width="128px" xmlns="http://www.w3.org/2000/svg" xmlns:xlink="http://www.w3.org/1999/xlink">
    <linearGradient id="a" gradientUnits="userSpaceOnUse" x1="8" x2="109.388496" y1="89" y2="89">
        <stop offset="0" stop-color="#85d6f3"/>
        <stop offset="0.0789044" stop-color="#ace3f7"/>
        <stop offset="0.197261" stop-color="#85d6f3"/>
    </linearGradient>
    <linearGradient id="b" gradientUnits="userSpaceOnUse" x1="122.671204" x2="100.698257" y1="78.027206" y2="82.546661">
        <stop offset="0" stop-color="#85d6f3"/>
        <stop offset="0.25" stop-color="#a9e2f7"/>
        <stop offset="1" stop-color="#85d6f3"/>
    </linearGradient>
    <linearGradient id="c" gradientTransform="matrix(1.120003 0 0 1 -7.68034 -176)" gradientUnits="userSpaceOnUse" x1="14.000001" x2="114" y1="235" y2="235">
        <stop offset="0" stop-color="#2962df"/>
        <stop offset="0.2" stop-color="#517fe6"/>
        <stop offset="0.82" stop-color="#507ee7"/>
        <stop offset="1" stop-color="#2a62df"/>
    </linearGradient>
    <linearGradient id="d" gradientTransform="matrix(0.978985 -0.565217 0.565217 0.978985 -123.465222 -151.637635)" gradientUnits="userSpaceOnUse" x1="19" x2="56.416985" y1="220" y2="220">
        <stop offset="0" stop-color="#41e3d3"/>
        <stop offset="1" stop-color="#615bf8"/>
    </linearGradient>
    <linearGradient id="e" gradientTransform="matrix(0.733668 -0.733668 -0.733668 -0.733668 169.721388 229.108203)" gradientUnits="userSpaceOnUse" x1="68.434441" x2="91.565559" y1="199.565567" y2="199.565567">
        <stop offset="0" stop-color="#ffc252"/>
        <stop offset="1" stop-color="#f55543"/>
    </linearGradient>
    <linearGradient id="f" gradientTransform="matrix(1.096512 0 0 1 -8.170013 -174)" gradientUnits="userSpaceOnUse" x1="43.930283" x2="72.078506" y1="242.918854" y2="222">
        <stop offset="0" stop-color="#453afe"/>
        <stop offset="1" stop-color="#ff5f7f"/>
    </linearGradient>
    <linearGradient id="g" gradientTransform="matrix(-1.169108 0 0 1.249985 189.858124 -235.496777)" gradientUnits="userSpaceOnUse" x1="83.703278" x2="71.136292" y1="235.958206" y2="215.59993">
        <stop offset="0" stop-color="#f8e45c"/>
        <stop offset="1" stop-color="#4ff2ac"/>
    </linearGradient>
    <path d="m 47 58 l 0.964844 56 c 0.011718 0.527344 -0.191406 1.035156 -0.5625 1.414062 c -0.371094 0.375 -0.875 0.585938 -1.402344 0.585938 h -14 c -13.253906 0 -24 -10.746094 -24 -24 v -29 c 0 -2.226562 1.773438 -4.046875 4 -4.101562 z m 0 0" fill="url(#a)"/>
    <path d="m 120 58 l 5.375 34.050781 c 0.15625 0.984375 -0.128906 1.992188 -0.777344 2.75 c -0.648437 0.761719 -1.597656 1.199219 -2.597656 1.199219 h -10 c -2.210938 0 -4 1.789062 -4 4 v 9 c 0 3.867188 -3.132812 7 -7 7 h -59 c -1.105469 0 -2 -0.894531 -2 -2 v -53 c 0 -1.109375 0.890625 -2.011719 2 -2.023438 z m 0 0" fill="url(#b)"/>
    <path d="m 20 46 h 88 c 6.628906 0 12 5.371094 12 12 v 2 c 0 6.628906 -5.371094 12 -12 12 h -88 c -6.628906 0 -12 -5.371094 -12 -12 v -2 c 0 -6.628906 5.371094 -12 12 -12 z m 0 0" fill="url(#c)"/>
    <path d="m 64.515625 27 c 7.179687 12.4375 2.921875 28.335938 -9.515625 35.515625 s -28.335938 2.921875 -35.515625 -9.515625 s -2.921875 -28.335938 9.515625 -35.515625 s 28.335938 -2.921875 35.515625 9.515625 z m 0 0" fill="url(#d)"/>
    <path d="m 90.484375 15.515625 c -4.683594 -4.6875 -12.285156 -4.6875 -16.96875 0 c -4.6875 4.683594 -4.6875 12.285156 0 16.96875 c 4.683594 4.6875 12.285156 4.6875 16.96875 0 c 4.6875 -4.683594 4.6875 -12.285156 0 -16.96875 z m 0 0" fill="url(#e)"/>
    <path d="m 44.496094 34 h 34.871094 c 2.480468 0 4.492187 2.011719 4.492187 4.496094 v 39.007812 c 0 2.484375 -2.011719 4.496094 -4.492187 4.496094 h -34.871094 c -2.484375 0 -4.496094 -2.011719 -4.496094 -4.496094 v -39.007812 c 0 -2.484375 2.011719 -4.496094 4.496094 -4.496094 z m 0 0" fill="url(#f)"/>
    <path d="m 103.855469 30.410156 l -29.203125 17.179688 c -0.820313 0.484375 -1.332032 1.40625 -1.332032 2.410156 c 0.003907 1 0.511719 1.925781 1.335938 2.40625 l 29.25 17.1875 c 0.859375 0.5 1.898438 0.484375 2.738281 -0.050781 c 0.839844 -0.53125 1.355469 -1.5 1.355469 -2.542969 l -0.039062 -34 c -0.003907 -1.046875 -0.519532 -2.011719 -1.363282 -2.546875 c -0.84375 -0.53125 -1.882812 -0.546875 -2.742187 -0.042969 z m 0 0" fill="url(#g)"/>
    <path d="m 36 92 h 56 v -20 h -56 z m 0 0" fill="#85d6f3"/>
    <path d="m 108 105 h -10 c -4.417969 0 -8 -3.582031 -8 -8" fill="none" stroke="#3d70e2" stroke-linejoin="round" stroke-width="6"/>
</svg>
